# xmcd
#
# Track frame offsets:
#	150
#	12144
#	24631
#	37936
#	47725
#	66365
#	78318
#	91102
#	101725
#	112557
#	123157
#	131968
#	144405
#	155189
#
# Disc length: 2243 seconds
# Revision: 0
# Processed by: cddbd v1.5.2PL0 Copyright (c) Steve Scherf et al.
# Submitted via: dBpowerAMP V12.0
#
DISCID=af08c10e
DTITLE=Bill Emerson - Eclipse
DYEAR=2011
DGENRE=Country
TTITLE0=New San Juan
TTITLE1=Jesse James
TTITLE2=Coast to Coast
TTITLE3=Chilly Winds
TTITLE4=Espanol
TTITLE5=Bed and Breakfast
TTITLE6=Don't Come Around
TTITLE7=Ride it Out
TTITLE8=Tex Mex Shindig
TTITLE9=No Steering - No Brakes
TTITLE10=Dickenson County Breakdown
TTITLE11=Poor Rebel Soldier
TTITLE12=The Grey Ghost
TTITLE13=Old Cane Pole
EXTD=
EXTT0=
EXTT1=
EXTT2=
EXTT3=
EXTT4=
EXTT5=
EXTT6=
EXTT7=
EXTT8=
EXTT9=
EXTT10=
EXTT11=
EXTT12=
EXTT13=
PLAYORDER=
